<svg width="65" height="17" viewBox="0 0 65 17" fill="none" xmlns="http://www.w3.org/2000/svg">
<path d="M64.35 9.14404C64.709 9.14404 65 8.85574 65 8.5001C65 8.14446 64.709 7.85616 64.35 7.85616L0.650002 7.85616C0.291017 7.85616 2.42788e-06 8.14446 2.41233e-06 8.5001C2.39679e-06 8.85574 0.291017 9.14404 0.650002 9.14404L64.35 9.14404Z" fill="#727272"/>
<path d="M9.23656 16.812C9.51334 17.052 9.94981 17.0638 10.2114 16.8383C10.4731 16.6128 10.4608 16.2354 10.184 15.9954L1.16324 8.17282C0.886464 7.9328 0.449996 7.92103 0.188366 8.14654C-0.0732649 8.37204 -0.0609842 8.74942 0.215795 8.98943L9.23656 16.812Z" fill="#727272"/>
<path d="M10.184 1.00457C10.4608 0.764555 10.4731 0.387178 10.2114 0.161675C9.94981 -0.0638284 9.51334 -0.0520636 9.23656 0.187952L0.215795 8.01052C-0.0609846 8.25053 -0.0732653 8.62791 0.188365 8.85341C0.449996 9.07892 0.886464 9.06715 1.16324 8.82714L10.184 1.00457Z" fill="#727272"/>
</svg>
