<svg width="40" height="40" viewBox="0 0 40 40" fill="none" xmlns="http://www.w3.org/2000/svg">
<path d="M20 40C31.0457 40 40 31.0457 40 20C40 8.9543 31.0457 0 20 0C8.9543 0 0 8.9543 0 20C0 31.0457 8.9543 40 20 40Z" fill="#3A67FA"/>
<path d="M38.8459 26.7076L29.7729 17.6346L22.8732 18.6952L17.5303 13.909L10.2133 14.9272L8.67224 26.7311L21.1436 39.9669C29.3367 39.5048 36.2104 34.1116 38.8459 26.7076Z" fill="#2451D1"/>
<path d="M18.2418 18.8724C18.6381 18.2555 18.8645 17.5197 18.8513 16.7306C18.8165 14.6192 17.0593 12.9416 14.9476 12.9416H9.05217C8.77607 12.9416 8.55225 13.1654 8.55225 13.4415V26.4065C8.55225 26.6826 8.77607 26.9064 9.05217 26.9064H15.6378C18.0819 26.9064 20.1068 24.9472 20.1164 22.5031C20.1228 21.0052 19.3797 19.6772 18.2418 18.8724ZM11.1386 15.528H14.9981C15.6969 15.528 16.2657 16.0966 16.2657 16.7956C16.2657 17.4944 15.6969 18.0631 14.9981 18.0631H11.1386V15.528ZM15.695 24.32H11.1386V20.6495H15.695C16.707 20.6495 17.5304 21.4731 17.5304 22.4848C17.5302 23.4967 16.7071 24.32 15.695 24.32Z" fill="white"/>
<path d="M31.4477 21.5836C31.4477 18.5649 29.0684 16.1087 26.1437 16.1087C23.2189 16.1087 20.8396 18.5649 20.8396 21.5836C20.8396 24.6026 23.2191 27.0585 26.1437 27.0585C27.9183 27.0585 29.5673 26.1489 30.5549 24.625C30.6779 24.4349 30.7898 24.2364 30.8891 24.0317C30.961 23.8832 30.8517 23.7103 30.6866 23.7101L28.0794 23.7035C28.0219 23.7035 27.9669 23.727 27.9257 23.7672C27.4333 24.2459 26.8298 24.4723 26.1439 24.4723C24.848 24.4723 23.7619 23.5031 23.4915 22.2113H30.9289C31.2155 22.2113 31.4478 21.9789 31.4478 21.6921V21.5835H31.4477V21.5836ZM26.1437 18.6951C27.0926 18.6951 27.9291 19.2153 28.4152 20.001H23.8719C24.3583 19.2154 25.1947 18.6951 26.1437 18.6951Z" fill="#D1D1D1"/>
<path d="M28.3478 15.4663H23.6433C23.4239 15.4663 23.2458 15.2882 23.2458 15.0688V13.8888C23.2458 13.6694 23.4239 13.4913 23.6433 13.4913H28.3478C28.5672 13.4913 28.745 13.6694 28.745 13.8888V15.0688C28.7451 15.2885 28.5672 15.4663 28.3478 15.4663Z" fill="#D1D1D1"/>
</svg>
