<svg width="10" height="20" viewBox="0 0 10 20" fill="none" xmlns="http://www.w3.org/2000/svg">
<path d="M9.62343 0.00416134L7.22488 0C4.5302 0 2.78878 1.9319 2.78878 4.92203V7.19141H0.377148C0.168755 7.19141 -6.45949e-08 7.37409 -6.45949e-08 7.59943V10.8875C-6.45949e-08 11.1128 0.168947 11.2953 0.377148 11.2953H2.78878V19.5922C2.78878 19.8175 2.95753 20 3.16593 20H6.31242C6.52081 20 6.68956 19.8173 6.68956 19.5922V11.2953H9.50932C9.71772 11.2953 9.88647 11.1128 9.88647 10.8875L9.88762 7.59943C9.88762 7.49123 9.84779 7.38762 9.77717 7.31105C9.70656 7.23448 9.61034 7.19141 9.51028 7.19141H6.68956V5.26763C6.68956 4.34298 6.89334 3.87358 8.00727 3.87358L9.62304 3.87295C9.83125 3.87295 10 3.69027 10 3.46514V0.411972C10 0.187052 9.83144 0.00457747 9.62343 0.00416134Z" fill="white"/>
</svg>
