<svg width="40" height="40" viewBox="0 0 40 40" fill="none" xmlns="http://www.w3.org/2000/svg">
<mask id="mask0" mask-type="alpha" maskUnits="userSpaceOnUse" x="0" y="0" width="40" height="40">
<path d="M25.9609 10.6419H14.0391C12.1362 10.6419 10.588 12.1901 10.588 14.093V26.0148C10.588 27.9177 12.1362 29.4663 14.0391 29.4663H25.9609C27.8638 29.4663 29.4124 27.9182 29.4124 26.0148V14.093C29.4124 12.1901 27.8642 10.6419 25.9609 10.6419ZM20 26.251C16.5832 26.251 13.8033 23.4711 13.8033 20.0539C13.8033 16.6372 16.5832 13.8572 20 13.8572C23.4172 13.8572 26.1971 16.6372 26.1971 20.0539C26.1971 23.4707 23.4167 26.251 20 26.251ZM26.3963 15.1385C25.5875 15.1385 24.9297 14.4807 24.9297 13.6723C24.9297 12.8639 25.5875 12.2061 26.3963 12.2061C27.2047 12.2061 27.8625 12.8639 27.8625 13.6723C27.8625 14.4807 27.2047 15.1385 26.3963 15.1385Z" fill="#6A453B"/>
<path d="M20 16.4759C18.0276 16.4759 16.4215 18.0811 16.4215 20.0535C16.4215 22.0268 18.0276 23.6324 20 23.6324C21.9733 23.6324 23.5781 22.0268 23.5781 20.0535C23.5781 18.0815 21.9729 16.4759 20 16.4759Z" fill="#6A453B"/>
<path d="M20 0C8.95475 0 0 8.95475 0 20C0 31.0453 8.95475 40 20 40C31.0453 40 40 31.0453 40 20C40 8.95475 31.0453 0 20 0ZM32.0306 26.0148C32.0306 29.3621 29.3081 32.0845 25.9609 32.0845H14.0391C10.6923 32.0845 7.96943 29.3621 7.96943 26.0148V14.093C7.96943 10.7462 10.6923 8.02335 14.0391 8.02335H25.9609C29.3081 8.02335 32.0306 10.7462 32.0306 14.093V26.0148Z" fill="#6A453B"/>
</mask>
<g mask="url(#mask0)">
<path d="M40 20C40 23.7177 38.9853 27.1991 37.218 30.1822C36.1176 32.0383 34.725 33.7021 33.1036 35.1093C29.747 38.0228 25.4105 39.8367 20.654 39.9893C20.4367 39.9966 20.2188 40 20 40C19.7812 40 19.5633 39.9966 19.346 39.9893C14.613 39.8376 10.2972 38.0417 6.94763 35.1544C5.26276 33.7021 3.82294 31.973 2.69867 30.0391C0.982971 27.0889 0 23.6588 0 20C0 16.4636 0.917664 13.1412 2.52808 10.2588C5.03845 5.7666 9.23096 2.34192 14.2529 0.838318C16.0727 0.292969 18.0023 0 20 0C21.9977 0 23.9273 0.292969 25.7471 0.838318C30.7355 2.33215 34.906 5.72174 37.4213 10.1697C39.0628 13.0725 40 16.427 40 20Z" fill="#D1D1D1"/>
<path d="M21 40L13 32L23.5 30.5H27.5L29.5 29L30.5 25.5V10L40 21C40 21 40.1575 29.4022 34 35C28.5 40 21 40 21 40Z" fill="#727272"/>
</g>
</svg>
