<svg width="40" height="40" viewBox="0 0 40 40" fill="none" xmlns="http://www.w3.org/2000/svg">
<mask id="mask0" mask-type="alpha" maskUnits="userSpaceOnUse" x="0" y="0" width="40" height="40">
<circle cx="20" cy="20" r="20" fill="#C4C4C4"/>
</mask>
<g mask="url(#mask0)">
<path d="M20 0C8.97204 0 0 8.97204 0 20C0 31.0271 8.97204 40 20 40C31.0271 40 40 31.0271 40 20C40 8.97204 31.0288 0 20 0ZM30.6058 29.0462C30.6058 29.8969 29.9001 30.5849 29.0276 30.5849H10.8362C9.96616 30.5849 9.25965 29.8969 9.25965 29.0462V10.6429C9.25965 9.79296 9.96616 9.10417 10.8362 9.10417H29.0276C29.8993 9.10417 30.6058 9.79377 30.6058 10.6429V29.0462Z" fill="#0073B0"/>
<path d="M20.5 40.5L11 31V28H29.5V9L41.5 20L40.5 25.5L40 28C39.5 30 38.4 34.1 38 34.5C37.6 34.9 34.1667 37.3333 32.5 38.5L20.5 40.5Z" fill="#0C5278"/>
<rect x="9" y="9" width="22" height="22" rx="2" fill="white"/>
<path d="M23.6444 17.1578C21.9325 17.1578 21.1679 18.0988 20.7402 18.7594V17.3866H17.5161C17.558 18.2954 17.5161 27.0869 17.5161 27.0869H20.7402V21.6676C20.7402 21.3784 20.7587 21.0876 20.8457 20.8805C21.0793 20.3005 21.6094 19.7003 22.5004 19.7003C23.6669 19.7003 24.1334 20.5897 24.1334 21.8948V27.0845H27.3574H27.3582V21.5218C27.3566 18.5443 25.7655 17.1578 23.6444 17.1578ZM20.7377 18.7932H20.7176C20.724 18.7819 20.7337 18.7715 20.7377 18.7602V18.7932Z" fill="#0073B0"/>
<path d="M15.7294 17.3866H12.5054V27.0869H15.7294V17.3866Z" fill="#0073B0"/>
<path d="M14.1392 12.7101C13.0371 12.7101 12.3153 13.4335 12.3153 14.3857C12.3153 15.3162 13.0154 16.0614 14.0965 16.0614H14.1175C15.2421 16.0614 15.9421 15.3162 15.9421 14.3857C15.9204 13.4343 15.2429 12.7101 14.1392 12.7101Z" fill="#0073B0"/>
</g>
</svg>
