<svg width="947" height="174" viewBox="0 0 947 174" fill="none" xmlns="http://www.w3.org/2000/svg">
<path d="M220.562 132.438V41.302H227.413V126.188H281.562V132.438H220.562Z" fill="#E60000"/>
<path d="M301.607 132.438V66.0388H308.062V132.438H301.607ZM300.816 48.723V40H308.853V48.723H300.816Z" fill="#E60000"/>
<path d="M333.493 132.438V66.0388H339.949V78.4072C345.307 69.1201 353.388 64.4765 364.191 64.4765C372.535 64.4765 379.079 67.037 383.822 72.1579C388.653 77.1921 391.068 83.7452 391.068 91.8172V132.438H384.612V92.9889C384.612 86.0453 382.724 80.5337 378.947 76.4543C375.17 72.3749 369.944 70.3352 363.269 70.3352C356.593 70.3352 351.016 72.5919 346.537 77.1053C342.145 81.5319 339.949 87.1736 339.949 94.0305V132.438H333.493Z" fill="#E60000"/>
<path d="M442.619 134C433.572 134 425.799 130.745 419.3 124.235C412.888 117.726 409.682 109.35 409.682 99.1081C409.682 89.3869 412.712 81.1847 418.773 74.5014C424.921 67.8181 432.518 64.4765 441.565 64.4765C450.788 64.4765 458.21 67.7747 463.831 74.3712C469.54 80.9677 472.395 89.2567 472.395 99.2383C472.395 100.28 472.351 101.148 472.263 101.842H416.533C417.148 109.827 419.958 116.207 424.965 120.981C430.059 125.668 436.032 128.011 442.883 128.011C451.666 128.011 459.351 124.539 465.939 117.596L470.418 121.501C462.601 129.834 453.335 134 442.619 134ZM416.533 96.1136H465.412C464.885 88.8227 462.557 82.7036 458.429 77.7563C454.301 72.8089 448.592 70.3352 441.302 70.3352C434.714 70.3352 429.093 72.8089 424.438 77.7563C419.783 82.6168 417.148 88.7359 416.533 96.1136Z" fill="#E60000"/>
<path d="M568.544 133.87C557.214 133.87 548.079 130.441 541.14 123.585C534.202 116.728 530.732 107.05 530.732 94.5513V41.302H537.583V93.9003C537.583 104.576 540.35 112.909 545.883 118.898C551.417 124.8 559.058 127.751 568.808 127.751C578.382 127.751 585.891 124.93 591.337 119.288C596.783 113.56 599.506 105.314 599.506 94.5513V41.302H606.357V93.7701C606.357 106.529 602.931 116.424 596.08 123.454C589.229 130.398 580.051 133.87 568.544 133.87Z" fill="#E60000"/>
<path d="M632.28 132.438V41.302H665.745C676.021 41.302 684.278 43.8191 690.514 48.8532C696.838 53.8006 700 60.6575 700 69.4239C700 78.6242 696.53 85.7849 689.592 90.9058C682.741 95.94 674.221 98.4571 664.032 98.4571H639.131V132.438H632.28ZM639.131 92.2078H664.427C673.035 92.2078 679.974 90.1681 685.244 86.0887C690.514 81.9225 693.149 76.4109 693.149 69.554C693.149 62.5236 690.602 57.0988 685.507 53.2798C680.501 49.4608 673.738 47.5513 665.218 47.5513H639.131V92.2078Z" fill="#E60000"/>
<path d="M732.983 75.3992V40.5966H744.567C750.003 40.5966 754.445 42.2539 757.892 45.5684C761.339 48.8498 763.062 52.9929 763.062 57.9979C763.062 62.9697 761.322 67.1128 757.842 70.4274C754.395 73.7419 749.97 75.3992 744.567 75.3992H732.983ZM735.568 73.0127H744.567C749.307 73.0127 753.119 71.5874 756.002 68.737C758.919 65.8865 760.378 62.3068 760.378 57.9979C760.378 53.7553 758.919 50.1922 756.002 47.3085C753.119 44.4249 749.307 42.9831 744.567 42.9831H735.568V73.0127Z" fill="#E60000"/>
<path d="M772.222 75.3992V40.5966H774.807V75.3992H772.222Z" fill="#E60000"/>
<path d="M801.476 75.9958C796.14 75.9958 791.881 74.2722 788.699 70.8251C785.55 67.378 783.976 63.1023 783.976 57.9979C783.976 53.1255 785.583 48.9161 788.798 45.3695C792.014 41.7898 796.14 40 801.178 40C803.863 40 806.183 40.3812 808.139 41.1435C810.127 41.9059 812.05 43.0494 813.906 44.574L812.216 46.513C809.034 43.7288 805.305 42.3367 801.029 42.3367C796.886 42.3367 793.455 43.8614 790.737 46.9108C788.02 49.9602 786.661 53.6559 786.661 57.9979C786.661 62.6051 788.003 66.3836 790.688 69.3336C793.372 72.2504 797.002 73.7087 801.576 73.7087C803.664 73.7087 805.686 73.3441 807.642 72.615C809.63 71.8526 811.304 70.8914 812.663 69.7313V59.738H801.029V57.3516H815.149V70.7754C813.425 72.3001 811.37 73.5596 808.984 74.554C806.631 75.5152 804.128 75.9958 801.476 75.9958Z" fill="#E60000"/>
<path d="M824.853 75.3992V40.5966H827.438V75.3992H824.853Z" fill="#E60000"/>
<path d="M847.793 75.3992V42.9831H835.662V40.5966H862.51V42.9831H850.379V75.3992H847.793Z" fill="#E60000"/>
<path d="M862.937 75.3992L879.145 40.348H881.631L897.839 75.3992H895.005L890.58 65.6544H870.047L865.622 75.3992H862.937ZM871.141 63.3177H889.486L880.338 43.1819L871.141 63.3177Z" fill="#E60000"/>
<path d="M905.199 75.3992V40.5966H907.785V73.0127H928.219V75.3992H905.199Z" fill="#E60000"/>
<path d="M730 133.403L746.208 98.3523H748.694L764.902 133.403H762.068L757.643 123.659H737.11L732.685 133.403H730ZM738.203 121.322H756.549L747.401 101.186L738.203 121.322Z" fill="#E60000"/>
<path d="M786.231 134C780.895 134 776.635 132.276 773.453 128.829C770.305 125.382 768.73 121.106 768.73 116.002C768.73 111.13 770.338 106.92 773.553 103.374C776.768 99.7941 780.895 98.0042 785.933 98.0042C788.617 98.0042 790.938 98.3854 792.893 99.1477C794.882 99.9101 796.804 101.054 798.66 102.578L796.97 104.517C793.788 101.733 790.059 100.341 785.783 100.341C781.64 100.341 778.21 101.866 775.492 104.915C772.774 107.964 771.415 111.66 771.415 116.002C771.415 120.609 772.757 124.388 775.442 127.338C778.127 130.255 781.756 131.713 786.33 131.713C788.419 131.713 790.44 131.348 792.396 130.619C794.385 129.857 796.059 128.896 797.417 127.736V117.742H785.783V115.356H799.903V128.78C798.18 130.304 796.125 131.564 793.738 132.558C791.385 133.519 788.883 134 786.231 134Z" fill="#E60000"/>
<path d="M809.259 133.403V98.6008H834.019V100.987H811.845V114.66H831.781V117.046H811.845V131.017H834.267V133.403H809.259Z" fill="#E60000"/>
<path d="M842.566 133.403V98.6008H845.003L869.016 128.879V98.6008H871.502V133.403H869.563L845.052 102.479V133.403H842.566Z" fill="#E60000"/>
<path d="M897.606 134C892.667 134 888.541 132.276 885.226 128.829C881.945 125.349 880.304 121.073 880.304 116.002C880.304 111.03 881.962 106.788 885.276 103.274C888.591 99.7609 892.734 98.0042 897.706 98.0042C900.556 98.0042 902.976 98.4848 904.964 99.446C906.986 100.407 909.025 101.833 911.08 103.722L909.389 105.462C905.876 102.048 901.965 100.341 897.656 100.341C893.479 100.341 889.983 101.849 887.165 104.865C884.381 107.848 882.989 111.561 882.989 116.002C882.989 120.41 884.398 124.123 887.215 127.139C890.066 130.155 893.562 131.663 897.706 131.663C900.125 131.663 902.263 131.216 904.119 130.321C905.975 129.426 907.831 128.067 909.688 126.244L911.428 127.934C909.406 129.923 907.318 131.431 905.163 132.459C903.009 133.486 900.49 134 897.606 134Z" fill="#E60000"/>
<path d="M929.401 133.403V119.632L914.486 98.6008H917.718L930.744 117.295L943.82 98.6008H946.902L931.987 119.582V133.403H929.401Z" fill="#E60000"/>
<ellipse cx="86.9823" cy="87" rx="86.9823" ry="87" fill="#E60000"/>
<path d="M59.0237 38.3214H48.6687V125.321H135.651V114.964H59.0237V38.3214Z" fill="white"/>
</svg>
