<svg width="16" height="10" viewBox="0 0 16 10" fill="none" xmlns="http://www.w3.org/2000/svg">
<path d="M15.3408 1.53509e-07H0.659189C0.295125 1.53509e-07 0 0.286762 0 0.64051V9.35949C0 9.71324 0.295125 10 0.659189 10H15.3408C15.7049 10 16 9.71324 16 9.35949V0.64051C16 0.286762 15.7049 1.53509e-07 15.3408 1.53509e-07ZM0.659189 0.503018H15.3408C15.4028 0.503312 15.4573 0.542715 15.4754 0.600268L8 5.13749L0.52459 0.600268C0.542709 0.542715 0.597239 0.503312 0.659189 0.503018ZM0.517688 1.17371L5.89474 4.43662L0.517688 8.58149V1.17371ZM15.4823 9.35614C15.4823 9.43209 15.4189 9.49363 15.3408 9.49363H0.659189C0.581061 9.49363 0.517688 9.43205 0.517688 9.35614V9.222L6.36066 4.73508L7.86195 5.64722C7.94629 5.6989 8.05371 5.6989 8.13805 5.64722L9.63934 4.73508L15.4823 9.222V9.35614ZM15.4823 8.58149L10.0915 4.45003L15.4823 1.20389V8.58149Z" fill="#E60000"/>
</svg>
