<svg width="16" height="26" viewBox="0 0 16 26" fill="none" xmlns="http://www.w3.org/2000/svg">
<path d="M6.68839 18.3134C4.62274 18.1032 2.76025 17.6068 1.16567 16.3898C0.967811 16.2384 0.763535 16.0925 0.582979 15.9234C-0.114966 15.2693 -0.185291 14.5202 0.366981 13.7482C0.839441 13.0876 1.63255 12.9109 2.45691 13.2902C2.61654 13.3638 2.76863 13.4555 2.9143 13.5541C5.88608 15.5465 9.96854 15.6015 12.9515 13.6437C13.247 13.4226 13.5629 13.2423 13.929 13.1503C14.6409 12.9719 15.3048 13.2271 15.6869 13.8348C16.1234 14.5289 16.1178 15.2064 15.58 15.7453C14.7551 16.5715 13.763 17.1692 12.6607 17.5863C11.6184 17.9806 10.4767 18.1791 9.34678 18.3109C9.51729 18.492 9.59766 18.581 9.70426 18.6856C11.2386 20.1898 12.7796 21.6877 14.3089 23.1966C14.8299 23.7107 14.9387 24.3481 14.6518 24.9461C14.3382 25.5996 13.636 26.0296 12.9476 25.9836C12.5114 25.9541 12.1712 25.7423 11.869 25.4452C10.7111 24.3084 9.53152 23.1925 8.39712 22.0341C8.06698 21.6973 7.90819 21.761 7.61685 22.0534C6.45202 23.2235 5.26822 24.3756 4.07745 25.5212C3.54276 26.0356 2.90649 26.1281 2.2864 25.8343C1.62725 25.5226 1.20781 24.866 1.24018 24.2062C1.26251 23.7599 1.48743 23.419 1.80138 23.1132C3.31978 21.6338 4.834 20.1506 6.34877 18.6687C6.44895 18.5702 6.54244 18.4656 6.68839 18.3134Z" fill="black"/>
<path d="M7.94715 13.1601C4.26208 13.1478 1.24034 10.1669 1.26183 6.56548C1.28304 2.92427 4.30673 -0.0100493 8.02808 2.58676e-05C11.757 0.00982871 14.7499 2.98635 14.7313 6.66542C14.7123 10.2595 11.6696 13.1726 7.94715 13.1601ZM11.2962 6.5742C11.2898 4.78599 9.83029 3.3624 8.00129 3.36077C6.15694 3.35886 4.6843 4.80832 4.69854 6.61286C4.71221 8.39426 6.18429 9.80777 8.01831 9.80124C9.84675 9.79498 11.3024 8.36213 11.2962 6.5742Z" fill="black"/>
</svg>
