<svg width="65" height="17" viewBox="0 0 65 17" fill="none" xmlns="http://www.w3.org/2000/svg">
<path d="M0.649999 9.14392C0.291014 9.14392 -1.26021e-08 8.85562 -2.81476e-08 8.49998C-4.36931e-08 8.14434 0.291015 7.85604 0.65 7.85604L64.35 7.85603C64.709 7.85603 65 8.14434 65 8.49998C65 8.85562 64.709 9.14392 64.35 9.14392L0.649999 9.14392Z" fill="#727272"/>
<path d="M55.7634 16.812C55.4867 17.052 55.0502 17.0638 54.7886 16.8383C54.5269 16.6128 54.5392 16.2354 54.816 15.9954L63.8368 8.17281C64.1135 7.9328 64.55 7.92103 64.8116 8.14654C65.0733 8.37204 65.061 8.74942 64.7842 8.98943L55.7634 16.812Z" fill="#727272"/>
<path d="M54.816 1.00463C54.5392 0.764617 54.5269 0.387239 54.7886 0.161736C55.0502 -0.0637675 55.4867 -0.0520029 55.7634 0.188013L64.7842 8.01058C65.061 8.25059 65.0733 8.62797 64.8116 8.85348C64.55 9.07898 64.1135 9.06721 63.8368 8.8272L54.816 1.00463Z" fill="#727272"/>
</svg>
