<svg width="20" height="76" viewBox="0 0 20 76" fill="none" xmlns="http://www.w3.org/2000/svg">
<path d="M9.24219 0.759999C9.24219 0.340263 9.58137 0 9.99976 0C10.4182 0 10.7573 0.340264 10.7573 0.76V75.24C10.7573 75.6597 10.4182 76 9.99976 76C9.58137 76 9.24219 75.6597 9.24219 75.24V0.759999Z" fill="#727272"/>
<path d="M0.221175 65.2002C-0.0611951 64.8766 -0.0750361 64.3662 0.190261 64.0603C0.455558 63.7544 0.89953 63.7688 1.1819 64.0924L10.3849 74.6398C10.6673 74.9634 10.6811 75.4737 10.4158 75.7796C10.1505 76.0855 9.70653 76.0712 9.42416 75.7475L0.221175 65.2002Z" fill="#727272"/>
<path d="M18.8182 64.0924C19.1006 63.7688 19.5445 63.7544 19.8098 64.0603C20.0751 64.3662 20.0613 64.8766 19.7789 65.2002L10.5759 75.7475C10.2936 76.0712 9.8496 76.0855 9.5843 75.7796C9.31901 75.4737 9.33285 74.9634 9.61522 74.6398L18.8182 64.0924Z" fill="#727272"/>
</svg>
