<svg width="40" height="40" viewBox="0 0 40 40" fill="none" xmlns="http://www.w3.org/2000/svg">
<path d="M20 40C31.0457 40 40 31.0457 40 20C40 8.9543 31.0457 0 20 0C8.9543 0 0 8.9543 0 20C0 31.0457 8.9543 40 20 40Z" fill="#D1D1D1"/>
<path d="M38.846 26.7075L29.773 17.6346L22.8733 18.6952L17.5304 13.9089L10.2134 14.9271L8.67236 26.731L21.1438 39.9669C29.3368 39.5047 36.2106 34.1116 38.846 26.7075Z" fill="#727272"/>
<path d="M18.2418 18.8725C18.6381 18.2556 18.8645 17.5198 18.8513 16.7307C18.8165 14.6193 17.0593 12.9417 14.9476 12.9417H9.05217C8.77607 12.9417 8.55225 13.1655 8.55225 13.4416V26.4066C8.55225 26.6827 8.77607 26.9065 9.05217 26.9065H15.6378C18.0819 26.9065 20.1068 24.9473 20.1164 22.5031C20.1228 21.0053 19.3797 19.6773 18.2418 18.8725ZM11.1386 15.5281H14.9981C15.6969 15.5281 16.2657 16.0967 16.2657 16.7956C16.2657 17.4945 15.6969 18.0631 14.9981 18.0631H11.1386V15.5281ZM15.695 24.3201H11.1386V20.6495H15.695C16.707 20.6495 17.5304 21.4731 17.5304 22.4849C17.5302 23.4968 16.7071 24.3201 15.695 24.3201Z" fill="white"/>
<path d="M31.448 21.5836C31.448 18.5648 29.0687 16.1086 26.144 16.1086C23.2191 16.1086 20.8398 18.5648 20.8398 21.5836C20.8398 24.6026 23.2194 27.0584 26.144 27.0584C27.9185 27.0584 29.5676 26.1488 30.5552 24.625C30.6781 24.4348 30.7901 24.2363 30.8893 24.0317C30.9613 23.8832 30.852 23.7102 30.6869 23.7101L28.0796 23.7035C28.0221 23.7035 27.9672 23.7269 27.9259 23.7672C27.4335 24.2458 26.8301 24.4722 26.1441 24.4722C24.8483 24.4722 23.7622 23.5031 23.4917 22.2112H30.9291C31.2157 22.2112 31.448 21.9788 31.448 21.692V21.5835H31.448V21.5836ZM26.144 18.6951C27.0928 18.6951 27.9293 19.2153 28.4155 20.0009H23.8722C24.3585 19.2154 25.1949 18.6951 26.144 18.6951Z" fill="white"/>
<path d="M28.348 15.4661H23.6435C23.4241 15.4661 23.2461 15.2881 23.2461 15.0687V13.8886C23.2461 13.6693 23.4241 13.4912 23.6435 13.4912H28.348C28.5674 13.4912 28.7452 13.6693 28.7452 13.8886V15.0687C28.7453 15.2884 28.5674 15.4661 28.348 15.4661Z" fill="white"/>
</svg>
