<svg width="40" height="40" viewBox="0 0 40 40" fill="none" xmlns="http://www.w3.org/2000/svg">
<path d="M20 40C31.0457 40 40 31.0457 40 20C40 8.9543 31.0457 0 20 0C8.9543 0 0 8.9543 0 20C0 31.0457 8.9543 40 20 40Z" fill="#D1D1D1"/>
<path d="M27.9949 11.8262C27.4741 12.0275 26.8773 11.9698 26.5994 11.7845C23.2323 9.89895 19.596 9.36028 16.229 10.303C11.4092 11.727 9.44045 17.0714 9.45319 22.0604C10.3369 23.7063 11.5062 26.1711 11.8694 28.041L23.5194 39.6912C31.7433 38.2312 38.2297 31.7456 39.6907 23.5222L27.9949 11.8262Z" fill="#727272"/>
<path d="M19.9998 8.56665C13.6876 8.56665 8.55225 13.6959 8.55225 20.0001C8.55225 26.3042 13.6876 31.4331 19.9998 31.4331C26.3122 31.4331 31.4479 26.3045 31.4479 20.0001C31.4479 13.6959 26.3122 8.56665 19.9998 8.56665ZM27.5327 13.9631C28.8386 15.5815 29.6321 17.6254 29.6687 19.8526C29.2343 19.7634 27.3941 19.4202 25.1951 19.4202C24.4855 19.4202 23.7387 19.4558 22.9901 19.5483C22.9269 19.3946 22.8636 19.2415 22.7972 19.0869C22.603 18.6302 22.3938 18.1771 22.1771 17.7306C25.5615 16.3363 27.1941 14.401 27.5327 13.9631ZM19.9998 10.3564C22.4391 10.3564 24.6689 11.2627 26.3719 12.7553C26.1023 13.1231 24.6402 14.9507 21.3768 16.1838C19.8662 13.4225 18.2129 11.1361 17.8194 10.6052C18.5206 10.4427 19.2504 10.3564 19.9998 10.3564ZM15.8454 11.2935C16.1789 11.7528 17.8348 14.0638 19.3842 16.8027C15.2261 17.8958 11.5336 17.967 10.6424 17.967H10.5477C11.1879 15.0165 13.1815 12.5648 15.8454 11.2935ZM10.3283 20.0152C10.3283 19.9356 10.3296 19.8559 10.3322 19.7768C10.39 19.7775 10.4754 19.7775 10.5861 19.7775C11.7863 19.7775 15.9526 19.6784 20.2458 18.4043C20.5064 18.9139 20.7544 19.4313 20.9851 19.9483C20.8767 19.9794 20.7697 20.0105 20.6635 20.0452C15.8296 21.6064 13.1726 25.7396 12.7637 26.4152C11.249 24.7084 10.3283 22.4677 10.3283 20.0152ZM19.9998 29.6732C17.7816 29.6732 15.7345 28.922 14.101 27.6623C14.3773 27.1206 16.3827 23.5099 21.6801 21.6662C21.6833 21.6649 21.6869 21.6636 21.6908 21.6627C23.0191 25.1209 23.5817 28.0234 23.736 28.9229C22.5863 29.4063 21.3238 29.6732 19.9998 29.6732ZM25.4778 27.9707C25.3481 27.2265 24.827 24.5063 23.6242 21.1888C24.2988 21.0838 24.9551 21.0424 25.5706 21.0424C27.592 21.0424 29.1733 21.4849 29.5407 21.5972C29.1039 24.2317 27.5956 26.5116 25.4778 27.9707Z" fill="white"/>
</svg>
