<svg width="40" height="40" viewBox="0 0 40 40" fill="none" xmlns="http://www.w3.org/2000/svg">
<path d="M20 40C31.0457 40 40 31.0457 40 20C40 8.9543 31.0457 0 20 0C8.9543 0 0 8.9543 0 20C0 31.0457 8.9543 40 20 40Z" fill="#DC4373"/>
<path d="M27.9948 11.8262C27.474 12.0276 26.8772 11.9698 26.5992 11.7845C23.2322 9.89898 19.5959 9.36031 16.2288 10.303C11.4091 11.727 9.44033 17.0714 9.45306 22.0604C10.3367 23.7063 11.5061 26.1711 11.8692 28.041L23.5192 39.6912C31.7431 38.2313 38.2295 31.7456 39.6906 23.5222L27.9948 11.8262Z" fill="#C13366"/>
<path d="M19.9997 8.56673C13.6875 8.56673 8.55212 13.696 8.55212 20.0002C8.55212 26.3043 13.6875 31.4331 19.9997 31.4331C26.3121 31.4331 31.4478 26.3045 31.4478 20.0002C31.4478 13.696 26.3121 8.56673 19.9997 8.56673ZM27.5326 13.9631C28.8385 15.5816 29.632 17.6255 29.6686 19.8527C29.2342 19.7635 27.394 19.4203 25.1949 19.4203C24.4854 19.4203 23.7386 19.4559 22.9899 19.5484C22.9267 19.3947 22.8635 19.2416 22.797 19.087C22.6028 18.6302 22.3937 18.1772 22.177 17.7307C25.5614 16.3363 27.194 14.4011 27.5326 13.9631ZM19.9997 10.3565C22.439 10.3565 24.6688 11.2627 26.3718 12.7554C26.1022 13.1232 24.6401 14.9508 21.3767 16.1838C19.8661 13.4226 18.2127 11.1362 17.8192 10.6052C18.5205 10.4428 19.2503 10.3565 19.9997 10.3565ZM15.8453 11.2936C16.1788 11.7529 17.8347 14.0638 19.3841 16.8028C15.226 17.8959 11.5335 17.9671 10.6423 17.9671H10.5476C11.1878 15.0166 13.1813 12.5649 15.8453 11.2936ZM10.3281 20.0152C10.3281 19.9356 10.3295 19.856 10.332 19.7769C10.3899 19.7776 10.4752 19.7776 10.586 19.7776C11.7862 19.7776 15.9524 19.6784 20.2456 18.4044C20.5063 18.914 20.7543 19.4313 20.985 19.9484C20.8766 19.9795 20.7696 20.0106 20.6634 20.0453C15.8295 21.6065 13.1724 25.7397 12.7636 26.4153C11.2488 24.7084 10.3281 22.4677 10.3281 20.0152ZM19.9997 29.6733C17.7815 29.6733 15.7344 28.922 14.1009 27.6624C14.3772 27.1206 16.3826 23.51 21.68 21.6663C21.6832 21.6649 21.6867 21.6637 21.6906 21.6627C23.019 25.1209 23.5816 28.0234 23.7359 28.923C22.5862 29.4063 21.3237 29.6733 19.9997 29.6733ZM25.4777 27.9708C25.348 27.2266 24.8269 24.5064 23.6241 21.1888C24.2987 21.0839 24.955 21.0424 25.5705 21.0424C27.5919 21.0424 29.1732 21.485 29.5406 21.5973C29.1038 24.2318 27.5955 26.5117 25.4777 27.9708Z" fill="#F0F1F1"/>
<path d="M19.9998 8.56673C19.9848 8.56673 19.9702 8.56782 19.9552 8.56782V10.357C19.97 10.357 19.9848 10.3563 19.9998 10.3563C22.4391 10.3563 24.6688 11.2626 26.3719 12.7552C26.1023 13.1231 24.6402 14.9506 21.3767 16.1837C20.9025 15.3167 20.4141 14.4966 19.9552 13.7631V18.4879C20.0519 18.4603 20.1487 18.4328 20.2455 18.4041C20.5062 18.9138 20.7542 19.4311 20.9849 19.9481C20.8765 19.9792 20.7695 20.0103 20.6633 20.0449C20.4212 20.1232 20.1862 20.2094 19.9552 20.2996V22.3788C20.4873 22.1225 21.0602 21.882 21.68 21.6663C21.6832 21.6649 21.6867 21.6637 21.6906 21.6627C23.019 25.1209 23.5816 28.0234 23.7359 28.923C22.5863 29.4063 21.3239 29.6733 19.9997 29.6733C19.9848 29.6733 19.9701 29.6724 19.9551 29.6724V31.4321C19.97 31.4321 19.9847 31.4332 19.9997 31.4332C26.3121 31.4332 31.4477 26.3046 31.4477 20.0002C31.4478 13.696 26.3122 8.56673 19.9998 8.56673ZM22.7972 19.0869C22.603 18.6302 22.3938 18.1771 22.1771 17.7306C25.5615 16.3363 27.1941 14.4011 27.5326 13.9631C28.8385 15.5815 29.6322 17.6254 29.6687 19.8525C29.2342 19.7634 27.3941 19.4202 25.1951 19.4202C24.4856 19.4202 23.7388 19.4559 22.9902 19.5482C22.9267 19.3946 22.8636 19.2415 22.7972 19.0869ZM25.4777 27.9708C25.348 27.2266 24.8269 24.5064 23.6241 21.1888C24.2987 21.0839 24.9551 21.0424 25.5705 21.0424C27.5919 21.0424 29.1733 21.485 29.5406 21.5973C29.1038 24.2318 27.5955 26.5117 25.4777 27.9708Z" fill="#D1D1D1"/>
</svg>
