<svg width="14" height="26" viewBox="0 0 14 26" fill="none" xmlns="http://www.w3.org/2000/svg">
<path d="M13.4728 0.00540974L10.1148 0C6.34228 0 3.90429 2.51147 3.90429 6.39863V9.34883H0.528007C0.236256 9.34883 -9.04329e-08 9.58632 -9.04329e-08 9.87926V14.1538C-9.04329e-08 14.4467 0.236526 14.6839 0.528007 14.6839H3.90429V25.4698C3.90429 25.7628 4.14054 26 4.4323 26H8.83738C9.12913 26 9.36539 25.7625 9.36539 25.4698V14.6839H13.3131C13.6048 14.6839 13.8411 14.4467 13.8411 14.1538L13.8427 9.87926C13.8427 9.73861 13.7869 9.6039 13.688 9.50436C13.5892 9.40483 13.4545 9.34883 13.3144 9.34883H9.36539V6.84791C9.36539 5.64587 9.65068 5.03565 11.2102 5.03565L13.4723 5.03484C13.7637 5.03484 14 4.79735 14 4.50469V0.535564C14 0.243168 13.764 0.00595071 13.4728 0.00540974Z" fill="black"/>
</svg>
